<svg xmlns="http://www.w3.org/2000/svg" xmlns:xlink="http://www.w3.org/1999/xlink"><defs>
<clipPath id="clip0_131_2520">
<rect width="142" height="42" fill="white"/>
</clipPath>

<clipPath id="clip0_809_744">
<rect width="25" height="25" fill="white"/>
</clipPath>

<clipPath id="clip0_809_776">
<rect width="25" height="25" fill="white"/>
</clipPath>

<clipPath id="clip0_131_2519">
<rect width="22" height="22" fill="white"/>
</clipPath>

<clipPath id="clip0_131_2514">
<rect width="22" height="22" fill="white"/>
</clipPath>

<clipPath id="clip0_809_788">
<rect width="23" height="23" fill="white"/>
</clipPath>
</defs><symbol id="arrow-small" viewBox="0 0 9 14"><g fill="none">
<path d="M1.5 13L7.5 7L1.5 1" stroke="currentColor" stroke-width="2"/>
</g></symbol><symbol id="arrow" viewBox="0 0 14 9"><g fill="none">
<path d="M0.646446 4.85355C0.451184 4.65829 0.451184 4.34171 0.646446 4.14645L3.82843 0.964466C4.02369 0.769204 4.34027 0.769204 4.53553 0.964466C4.7308 1.15973 4.7308 1.47631 4.53553 1.67157L1.70711 4.5L4.53553 7.32843C4.7308 7.52369 4.7308 7.84027 4.53553 8.03553C4.34027 8.2308 4.02369 8.2308 3.82843 8.03553L0.646446 4.85355ZM14 5H1V4H14V5Z" fill="currentColor"/>
</g></symbol><symbol id="boots" viewBox="0 0 22 22"><g fill="none">
<path d="M20.7153 14.2434C21.3367 12.1487 20.8254 9.77108 20.2821 8.12359C20.2785 8.05985 20.2602 7.99807 20.2288 7.94394C20.0442 7.40879 19.8737 6.96921 19.7281 6.65194C19.9961 6.53708 20.1729 6.25909 20.1755 5.94861V2.76449C20.1755 2.34225 19.8576 2 19.4654 2H10.7408C10.5447 1.99962 10.3854 2.17043 10.3851 2.38158C10.3851 2.38946 10.3853 2.39735 10.3857 2.40518C10.5064 4.69866 10.3502 6.25441 9.89923 7.35146C9.89026 7.36235 9.88196 7.37386 9.87437 7.38586C9.87304 7.40492 9.87304 7.42413 9.87437 7.44319C9.70224 7.84255 9.46943 8.20812 9.1855 8.52495L9.15354 8.54789C9.15354 8.54789 9.15354 8.54789 9.15354 8.57465C8.73724 9.00205 8.25711 9.35094 7.73318 9.60671C6.82033 10.0427 5.88351 10.418 4.92796 10.7305L4.74687 10.7955C1.42677 11.9805 0.993564 14.1287 1.00067 15.2066C0.999778 15.2219 0.999778 15.2372 1.00067 15.2525V17.9817C1.0012 18.1146 1.06569 18.2376 1.17111 18.3066C1.9848 18.8396 2.86311 19.2486 3.78102 19.5222C3.9698 19.5793 4.1659 19.4609 4.21898 19.2577C4.22897 19.2194 4.23336 19.1797 4.23199 19.1399V19.052H4.75397V19.4343C4.75171 19.6236 4.87861 19.7862 5.05225 19.8165C5.36117 19.87 5.6701 19.9121 5.97193 19.9388C6.07082 19.9478 6.16869 19.9117 6.2418 19.8395C6.31486 19.7665 6.35609 19.6639 6.35543 19.5566V19.075H6.87741V19.6178C6.87741 19.8288 7.0364 20 7.2325 20C7.53077 20 7.82905 20 8.14863 19.9541C8.33359 19.9382 8.47589 19.7716 8.47531 19.5719V19.075H8.9973V19.4113C8.99477 19.6224 9.15167 19.7958 9.34777 19.7985C9.36832 19.7988 9.38887 19.7972 9.4092 19.7936C10.061 19.6861 10.7035 19.5212 11.3302 19.3005L11.3871 19.2737C13.8727 17.7447 15.4493 19.0023 15.5132 19.0559C15.5752 19.1076 15.6513 19.1358 15.7298 19.1361H16.1701C16.3662 19.1361 16.5252 18.965 16.5252 18.7539V18.1079H17.033V18.7462C17.033 18.9573 17.192 19.1285 17.3881 19.1285H18.5315C18.7276 19.1285 18.8866 18.9573 18.8866 18.7462V18.1079H19.4121V18.7462C19.4121 18.9573 19.5711 19.1285 19.7672 19.1285H20.6443C20.8404 19.1285 20.9993 18.9573 20.9993 18.7462V14.6256C21.0028 14.4411 20.8833 14.2803 20.7153 14.2434ZM12.289 2.77214H19.4476V5.93714H12.289V2.77214ZM7.8255 10.3941L7.82905 10.4171C8.12014 10.6715 8.38876 10.9543 8.63155 11.2618C8.56715 11.3771 8.53395 11.5095 8.53568 11.6441C8.53324 12.0473 8.83493 12.3763 9.20946 12.3789C9.58404 12.3815 9.88964 12.0568 9.89208 11.6536C9.89439 11.2737 9.62572 10.9555 9.27427 10.9216C9.04967 10.592 8.79379 10.2884 8.51082 10.0157C8.82814 9.8213 9.12668 9.59338 9.4021 9.33532C9.74649 9.68311 10.0669 10.0574 10.3608 10.4553C10.2373 10.836 10.4238 11.2523 10.7774 11.3854C11.131 11.5183 11.5178 11.3176 11.6414 10.9369C11.7649 10.5563 11.5784 10.1399 11.2248 10.0069C11.1515 9.97926 11.0742 9.96545 10.9965 9.96602H10.9112C10.5998 9.54393 10.2604 9.14663 9.89567 8.77724C10.0649 8.5529 10.2147 8.31238 10.3431 8.05861C10.8928 8.36665 11.4241 8.71135 11.9339 9.09068C11.9304 9.49811 12.2344 9.83143 12.6129 9.8352C12.9914 9.83897 13.301 9.51172 13.3045 9.1043C13.308 8.69687 13.004 8.36355 12.6255 8.35977C12.5174 8.35868 12.4106 8.38515 12.3138 8.43704C11.7773 8.046 11.2187 7.69113 10.6414 7.37439C11.0284 6.26587 11.1953 4.79422 11.1172 2.78743H11.5824V5.95243C11.5824 6.37467 11.9003 6.71693 12.2925 6.71693H18.9469C19.0392 6.91952 19.1955 7.27118 19.3659 7.72988H19.2203C17.0632 7.74665 15.3271 9.64269 15.3427 11.9648C15.3515 13.2844 15.9353 14.5229 16.9194 15.3098C14.0467 16.124 9.72523 17.0911 6.08911 16.8388C6.76023 13.9529 5.95773 12.1754 5.43574 11.3956C6.24859 11.1086 7.04634 10.7743 7.8255 10.3941ZM4.72201 11.6135C5.10551 12.099 6.10686 13.7312 5.37183 16.7318C4.09235 16.6235 2.84967 16.2193 1.7286 15.5468C1.71586 15.4595 1.70756 15.3714 1.70374 15.2831V15.2563C1.67534 14.4421 1.95941 12.68 4.72201 11.6135ZM20.1223 18.364V17.7256C20.1223 17.5145 19.9633 17.3434 19.7672 17.3434H18.535C18.3389 17.3434 18.1799 17.5145 18.1799 17.7256V18.364H17.7432V17.7256C17.7432 17.5145 17.5842 17.3434 17.3881 17.3434H16.163C15.9669 17.3434 15.8079 17.5145 15.8079 17.7256V18.3487C15.325 18.0238 13.5602 17.0796 11.0568 18.5857C10.6114 18.7439 10.1572 18.8716 9.69683 18.9679V18.7042C9.69683 18.4931 9.53783 18.3219 9.34173 18.3219H8.11667C7.92058 18.3219 7.76158 18.4931 7.76158 18.7042V19.2279H7.58049V18.6927C7.58049 18.4816 7.4215 18.3105 7.2254 18.3105H5.99323C5.79714 18.3105 5.63814 18.4816 5.63814 18.6927V19.1476L5.45705 19.1208V18.6927C5.45705 18.4816 5.29806 18.3105 5.10196 18.3105H3.86979C3.68919 18.3091 3.53637 18.4538 3.5147 18.6468C2.88446 18.4235 2.27757 18.1301 1.70374 17.7715V16.4031C3.25194 17.286 5.25465 17.6186 7.38519 17.6186C13.0453 17.6186 19.5222 15.2869 20.2856 15.0079L20.2892 18.364H20.1223ZM19.9483 14.3313C19.6465 14.4383 18.9043 14.7135 17.8781 15.0079C16.2894 14.1801 15.6248 12.1228 16.3937 10.4125C16.9197 9.24267 18.0132 8.49175 19.2203 8.47144C19.3603 8.46934 19.5003 8.47698 19.6394 8.49437L19.6429 8.50584C20.1649 10.1266 20.6336 12.4392 19.9483 14.3313Z" fill="currentColor"/>
<path d="M13.6564 3.23469C13.0857 3.23469 12.6231 3.73271 12.6231 4.34703C12.625 4.96049 13.0865 5.45727 13.6564 5.45937C14.227 5.45937 14.6897 4.96135 14.6897 4.34703C14.6897 3.73271 14.2271 3.23469 13.6564 3.23469ZM13.6564 4.69487C13.4779 4.69487 13.3332 4.53916 13.3332 4.34703C13.3332 4.1549 13.4779 3.99918 13.6564 3.99918C13.8348 3.99918 13.9795 4.1549 13.9795 4.34703C13.9795 4.53916 13.8348 4.69487 13.6564 4.69487Z" fill="currentColor"/>
</g></symbol><symbol id="crown" viewBox="0 0 22 22"><g fill="none">
<path d="M17.6867 20H4.31331M21 7.11028L18.0746 16.8049H3.92539L1 7.11028L6.77168 10.6142L11 2L15.2283 10.6142L21 7.11028Z" stroke="#0266C1"/>
</g></symbol><symbol id="leaf" viewBox="0 0 22 22"><g fill="none">
<path d="M10.6903 16.2442C10.0125 13.3813 8.01953 10.9718 5.27543 9.69773C3.92399 9.07026 2.46282 8.75181 1 8.74238C1.08555 10.771 1.83429 12.7457 3.17529 14.367C5.06036 16.646 7.9121 17.9803 10.933 17.9998C10.9083 17.4135 10.828 16.8259 10.6903 16.2442ZM10.6903 16.2442C10.1339 13.894 8.69109 11.8494 6.67408 10.4875C6.70814 10.2845 6.74903 10.0818 6.79684 9.87988C7.37026 7.4577 8.88519 5.36004 11 4C13.1147 5.36004 14.6297 7.4577 15.2031 9.87988C15.2509 10.0818 15.2918 10.2845 15.3258 10.4875C13.3088 11.8493 11.8661 13.894 11.3097 16.2442M10.6903 16.2442C10.8279 16.8257 10.9082 17.4131 10.933 17.9992C10.9748 17.9997 11.0166 18 11.0585 18C11.9054 18 12.7394 17.8966 13.5431 17.698C13.5477 17.692 13.5522 17.6859 13.5567 17.6799C12.752 17.8849 11.9162 17.9943 11.067 17.9998M11.3097 16.2442C11.9875 13.3813 13.9805 10.9718 16.7246 9.69773C18.076 9.07026 19.5372 8.75181 21 8.74238C20.9144 10.771 20.1657 12.7457 18.8247 14.367C16.9396 16.646 14.0879 17.9803 11.067 17.9998M11.3097 16.2442C11.172 16.8259 11.0917 17.4135 11.067 17.9998" stroke="#0266C1" stroke-linecap="round" stroke-linejoin="round"/>
</g></symbol><symbol id="level" viewBox="0 0 22 22"><g fill="none">
<path d="M20 21H16.4V1H20V21Z" stroke="currentColor" stroke-miterlimit="16" stroke-linecap="round"/>
<path d="M12.8 21V6.45455H9.2L9.2 21H12.8Z" stroke="currentColor" stroke-miterlimit="16" stroke-linecap="round"/>
<path d="M5.6 21V11.9091H2V21H5.6Z" stroke="currentColor" stroke-miterlimit="16" stroke-linecap="round"/>
</g></symbol><symbol id="logo" viewBox="0 0 142 42"><g fill="none">
<g clip-path="url(#clip0_131_2520)">
<path d="M15.7314 27.2445L19.4995 23.359L23.7857 27.2445H31.1334L19.4524 16.0044L7.86561 27.2445H15.7314Z" fill="currentColor"/>
<path d="M26.5178 9.20485L20.9599 14.7555L24.6337 18.4559L26.5178 16.6057L36.8328 26.6894C34.4778 32.8414 28.4489 37.2357 21.3367 37.2357C12.1991 37.2357 4.80428 29.9736 4.80428 21C4.85138 12.0264 12.2462 4.76432 21.3838 4.76432C29.4851 4.76432 36.2676 10.5463 37.6336 18.0859L42.6262 23.2665C42.7204 22.5264 42.7675 21.7401 42.7675 21C42.7675 15.4031 40.5538 10.13 36.5031 6.15198C32.4525 2.17401 27.083 0 21.3838 0C15.6375 0 10.3151 2.17401 6.26441 6.15198C2.21374 10.13 0 15.3568 0 21C0 26.6432 2.21374 31.87 6.26441 35.848C10.3151 39.826 15.6846 42 21.3838 42C27.083 42 32.4525 39.826 36.5031 35.848C38.9995 33.3965 40.7893 30.4824 41.7784 27.2907C41.9668 26.7357 42.1081 26.1344 42.2494 25.5793L37.9162 21.0925L26.5178 9.20485Z" fill="currentColor"/>
<path d="M60.4115 13.4945H63.5561L61.8408 21.9634H67.1453L66.6371 24.4121H58.1881L60.4115 13.4945Z" fill="currentColor"/>
<path d="M70.1049 13.4945H73.2495L71.026 24.4121H67.8815L70.1049 13.4945Z" fill="currentColor"/>
<path d="M78.1389 15.8808L77.6466 18.2826H82.554L82.0617 20.6689H77.1701L76.4078 24.4121H73.2632L75.4867 13.4945H84.1898L83.6975 15.8808H78.1389Z" fill="currentColor"/>
<path d="M88.2809 15.8808L87.9157 17.7212H92.8549L92.3943 20.0295H87.4392L87.0422 22.0258H92.8707L92.3625 24.4121H83.4529L85.6764 13.4945H94.3795L93.8872 15.8808H88.2809Z" fill="currentColor"/>
<path d="M98.205 15.9431H94.7904L95.2987 13.4945H105.256L104.748 15.9431H101.35L99.6185 24.4121H96.4739L98.205 15.9431Z" fill="currentColor"/>
<path d="M110.053 24.6305C108.93 24.6305 107.951 24.4277 107.115 24.0222C106.289 23.6167 105.648 23.05 105.193 22.3222C104.748 21.5943 104.526 20.7625 104.526 19.8267C104.526 18.579 104.817 17.456 105.399 16.4578C105.992 15.4596 106.813 14.6798 107.861 14.1183C108.92 13.5569 110.122 13.2761 111.466 13.2761C112.588 13.2761 113.563 13.4789 114.388 13.8844C115.225 14.2899 115.865 14.8566 116.31 15.5844C116.765 16.3123 116.993 17.1441 116.993 18.0799C116.993 19.3276 116.697 20.4506 116.104 21.4488C115.521 22.4469 114.701 23.2268 113.642 23.7882C112.594 24.3497 111.397 24.6305 110.053 24.6305ZM110.323 22.0726C111.021 22.0726 111.636 21.9011 112.165 21.5579C112.694 21.2148 113.102 20.7573 113.388 20.1854C113.674 19.6032 113.817 18.9637 113.817 18.267C113.817 17.5288 113.584 16.9413 113.118 16.5046C112.663 16.0575 112.022 15.834 111.196 15.834C110.497 15.834 109.883 16.0055 109.354 16.3487C108.825 16.6918 108.417 17.1545 108.131 17.7368C107.845 18.3086 107.702 18.9429 107.702 19.6395C107.702 20.3778 107.93 20.9705 108.385 21.4176C108.851 21.8543 109.497 22.0726 110.323 22.0726Z" fill="currentColor"/>
<path d="M122.896 24.6305C121.933 24.6305 121.102 24.4745 120.403 24.1626C119.704 23.8402 119.169 23.3827 118.799 22.7901C118.428 22.1974 118.243 21.5007 118.243 20.7001C118.243 20.3674 118.285 19.9827 118.37 19.546L119.609 13.4945H122.753L121.53 19.4992C121.467 19.8111 121.435 20.097 121.435 20.357C121.435 21.5007 122.049 22.0726 123.277 22.0726C123.944 22.0726 124.469 21.8751 124.85 21.4799C125.241 21.0744 125.533 20.4142 125.723 19.4992L126.946 13.4945H130.043L128.788 19.6863C128.111 22.9824 126.147 24.6305 122.896 24.6305Z" fill="currentColor"/>
<path d="M141.416 16.9725C141.416 17.9707 141.146 18.8337 140.606 19.5616C140.066 20.279 139.309 20.8041 138.335 21.1368L140.225 24.4121H136.938L135.286 21.5111H133.698L133.11 24.4121H129.966L132.189 13.4945H136.938C138.357 13.4945 139.458 13.8012 140.241 14.4147C141.025 15.0281 141.416 15.8808 141.416 16.9725ZM138.24 17.2689C138.24 16.8218 138.087 16.489 137.779 16.2707C137.472 16.0419 137.044 15.9275 136.493 15.9275H134.841L134.174 19.1249H136.048C136.747 19.1249 137.287 18.9637 137.668 18.6414C138.049 18.319 138.24 17.8615 138.24 17.2689Z" fill="currentColor"/>
<path d="M60.2817 34.7063C59.8987 34.7063 59.5507 34.6231 59.2376 34.4567C58.9283 34.2867 58.6852 34.0553 58.5085 33.7623C58.3354 33.4694 58.2488 33.1403 58.2488 32.775C58.2488 32.4097 58.3354 32.0806 58.5085 31.7877C58.6852 31.4947 58.9283 31.2651 59.2376 31.0987C59.5507 30.9287 59.8987 30.8437 60.2817 30.8437C60.6647 30.8437 61.009 30.9269 61.3147 31.0933C61.624 31.2596 61.8671 31.4911 62.0439 31.7877C62.2206 32.0806 62.309 32.4097 62.309 32.775C62.309 33.1403 62.2206 33.4712 62.0439 33.7678C61.8671 34.0607 61.624 34.2904 61.3147 34.4567C61.009 34.6231 60.6647 34.7063 60.2817 34.7063ZM60.2817 34.3482C60.5873 34.3482 60.8635 34.2813 61.1103 34.1475C61.357 34.0101 61.5504 33.822 61.6903 33.5833C61.8303 33.341 61.9002 33.0716 61.9002 32.775C61.9002 32.4784 61.8303 32.2108 61.6903 31.9721C61.5504 31.7298 61.357 31.5417 61.1103 31.4079C60.8635 31.2705 60.5873 31.2018 60.2817 31.2018C59.976 31.2018 59.698 31.2705 59.4475 31.4079C59.2008 31.5417 59.0056 31.7298 58.862 31.9721C58.7221 32.2108 58.6521 32.4784 58.6521 32.775C58.6521 33.0716 58.7221 33.341 58.862 33.5833C59.0056 33.822 59.2008 34.0101 59.4475 34.1475C59.698 34.2813 59.976 34.3482 60.2817 34.3482Z" fill="currentColor"/>
<path d="M64.6876 31.7985C64.9601 31.7985 65.2068 31.86 65.4278 31.983C65.6488 32.1023 65.8219 32.2723 65.9471 32.4929C66.0723 32.7135 66.1349 32.9649 66.1349 33.247C66.1349 33.5327 66.0723 33.7858 65.9471 34.0065C65.8219 34.2271 65.6488 34.3989 65.4278 34.5218C65.2105 34.6412 64.9638 34.7008 64.6876 34.7008C64.4519 34.7008 64.2383 34.6538 64.0468 34.5598C63.859 34.4622 63.7043 34.3211 63.5828 34.1367V35.7262H63.1906V31.8202H63.5662V32.3844C63.684 32.1963 63.8387 32.0517 64.0302 31.9504C64.2254 31.8492 64.4445 31.7985 64.6876 31.7985ZM64.66 34.3591C64.8625 34.3591 65.0466 34.3139 65.2124 34.2235C65.3781 34.1294 65.507 33.9974 65.5991 33.8274C65.6948 33.6575 65.7427 33.464 65.7427 33.247C65.7427 33.03 65.6948 32.8383 65.5991 32.6719C65.507 32.5019 65.3781 32.3699 65.2124 32.2759C65.0466 32.1819 64.8625 32.1349 64.66 32.1349C64.4537 32.1349 64.2678 32.1819 64.102 32.2759C63.94 32.3699 63.8111 32.5019 63.7154 32.6719C63.6233 32.8383 63.5772 33.03 63.5772 33.247C63.5772 33.464 63.6233 33.6575 63.7154 33.8274C63.8111 33.9974 63.94 34.1294 64.102 34.2235C64.2678 34.3139 64.4537 34.3591 64.66 34.3591Z" fill="currentColor"/>
<path d="M69.0325 32.162H67.3698V34.6737H66.9776V31.8202H69.0325V32.162Z" fill="currentColor"/>
<path d="M70.5992 31.7985C70.9785 31.7985 71.2694 31.8925 71.472 32.0806C71.6745 32.2651 71.7758 32.5399 71.7758 32.9052V34.6737H71.4002V34.2289C71.3118 34.3772 71.1811 34.4929 71.008 34.5761C70.8386 34.6593 70.636 34.7008 70.4003 34.7008C70.0762 34.7008 69.8185 34.6249 69.627 34.473C69.4355 34.3211 69.3397 34.1204 69.3397 33.8708C69.3397 33.6285 69.4281 33.4332 69.6049 33.2849C69.7853 33.1367 70.0707 33.0625 70.4611 33.0625H71.3836V32.8889C71.3836 32.643 71.3136 32.4567 71.1737 32.3302C71.0337 32.2 70.8294 32.1349 70.5605 32.1349C70.3764 32.1349 70.1996 32.1656 70.0302 32.2271C69.8608 32.285 69.7153 32.3663 69.5938 32.4712L69.417 32.1837C69.5643 32.0607 69.7411 31.9667 69.9473 31.9016C70.1536 31.8329 70.3709 31.7985 70.5992 31.7985ZM70.4611 34.3971C70.682 34.3971 70.8717 34.3482 71.0301 34.2506C71.1884 34.1493 71.3063 34.0047 71.3836 33.8166V33.35H70.4721C69.975 33.35 69.7264 33.52 69.7264 33.86C69.7264 34.0263 69.7908 34.1584 69.9197 34.256C70.0486 34.35 70.2291 34.3971 70.4611 34.3971Z" fill="currentColor"/>
<path d="M72.8199 31.8202H73.2121V33.0842H75.0406V31.8202H75.4328V34.6737H75.0406V33.4151H73.2121V34.6737H72.8199V31.8202Z" fill="currentColor"/>
<path d="M76.5476 31.8202H76.9398V34.0878L78.8787 31.8202H79.2267V34.6737H78.8345V32.4061L76.9011 34.6737H76.5476V31.8202Z" fill="currentColor"/>
<path d="M81.7056 33.1873C81.9118 33.2343 82.0701 33.3157 82.1806 33.4314C82.2948 33.5471 82.3519 33.6882 82.3519 33.8546C82.3519 34.0209 82.293 34.1692 82.1751 34.2994C82.0609 34.4296 81.9044 34.5309 81.7056 34.6032C81.5067 34.6719 81.2876 34.7063 81.0482 34.7063C80.8383 34.7063 80.632 34.6773 80.4295 34.6195C80.227 34.558 80.0502 34.4694 79.8992 34.3537L80.0318 34.0661C80.1643 34.1638 80.319 34.2397 80.4958 34.294C80.6726 34.3482 80.8512 34.3754 81.0316 34.3754C81.3005 34.3754 81.5196 34.3265 81.689 34.2289C81.8621 34.1276 81.9486 33.992 81.9486 33.822C81.9486 33.6701 81.8786 33.5526 81.7387 33.4694C81.5988 33.3826 81.4073 33.3392 81.1642 33.3392H80.667V33.0571H81.1421C81.3594 33.0571 81.5343 33.0173 81.6669 32.9377C81.7995 32.8546 81.8658 32.7443 81.8658 32.6068C81.8658 32.4549 81.7903 32.3356 81.6393 32.2488C81.492 32.162 81.2986 32.1186 81.0592 32.1186C80.7462 32.1186 80.4369 32.1963 80.1312 32.3519L80.0207 32.0535C80.3669 31.8763 80.726 31.7877 81.0979 31.7877C81.3189 31.7877 81.5177 31.8202 81.6945 31.8853C81.875 31.9468 82.0149 32.0354 82.1143 32.1511C82.2175 32.2669 82.269 32.4007 82.269 32.5526C82.269 32.6972 82.2175 32.8256 82.1143 32.9377C82.0149 33.0499 81.8786 33.133 81.7056 33.1873Z" fill="currentColor"/>
<path d="M84.2421 31.7985C84.6214 31.7985 84.9123 31.8925 85.1149 32.0806C85.3174 32.2651 85.4187 32.5399 85.4187 32.9052V34.6737H85.0431V34.2289C84.9547 34.3772 84.824 34.4929 84.6509 34.5761C84.4815 34.6593 84.2789 34.7008 84.0432 34.7008C83.7191 34.7008 83.4614 34.6249 83.2699 34.473C83.0784 34.3211 82.9826 34.1204 82.9826 33.8708C82.9826 33.6285 83.071 33.4332 83.2478 33.2849C83.4282 33.1367 83.7136 33.0625 84.104 33.0625H85.0265V32.8889C85.0265 32.643 84.9565 32.4567 84.8166 32.3302C84.6766 32.2 84.4723 32.1349 84.2034 32.1349C84.0193 32.1349 83.8425 32.1656 83.6731 32.2271C83.5037 32.285 83.3582 32.3663 83.2367 32.4712L83.0599 32.1837C83.2073 32.0607 83.384 31.9667 83.5902 31.9016C83.7965 31.8329 84.0138 31.7985 84.2421 31.7985ZM84.104 34.3971C84.325 34.3971 84.5146 34.3482 84.673 34.2506C84.8313 34.1493 84.9492 34.0047 85.0265 33.8166V33.35H84.115C83.6179 33.35 83.3693 33.52 83.3693 33.86C83.3693 34.0263 83.4337 34.1584 83.5626 34.256C83.6915 34.35 83.872 34.3971 84.104 34.3971Z" fill="currentColor"/>
<path d="M89.49 34.3374V35.3898H89.1199V34.6737H86.4628V31.8202H86.855V34.3374H88.6282V31.8202H89.0204V34.3374H89.49Z" fill="currentColor"/>
<path d="M90.239 31.8202H90.6312V34.0878L92.5702 31.8202H92.9182V34.6737H92.526V32.4061L90.5926 34.6737H90.239V31.8202Z" fill="currentColor"/>
<path d="M96.2739 31.8202V34.6737H95.9148V33.7298H94.8929L94.219 34.6737H93.7936L94.5173 33.6755C94.2926 33.6141 94.1195 33.5092 93.998 33.3609C93.8765 33.2126 93.8157 33.0245 93.8157 32.7967C93.8157 32.4784 93.9262 32.2361 94.1472 32.0698C94.3681 31.9034 94.6701 31.8202 95.0531 31.8202H96.2739ZM94.2134 32.8076C94.2134 33.2307 94.4878 33.4423 95.0365 33.4423H95.9148V32.162H95.0641C94.497 32.162 94.2134 32.3772 94.2134 32.8076Z" fill="currentColor"/>
<path d="M101.445 31.8202V34.6737H101.053V32.162H99.2302V34.6737H98.838V31.8202H101.445Z" fill="currentColor"/>
<path d="M103.759 34.7008C103.479 34.7008 103.227 34.6394 103.002 34.5164C102.778 34.3898 102.601 34.2162 102.472 33.9956C102.343 33.775 102.279 33.5254 102.279 33.247C102.279 32.9685 102.343 32.7189 102.472 32.4983C102.601 32.2777 102.778 32.1059 103.002 31.983C103.227 31.86 103.479 31.7985 103.759 31.7985C104.039 31.7985 104.291 31.86 104.516 31.983C104.74 32.1059 104.915 32.2777 105.041 32.4983C105.169 32.7189 105.234 32.9685 105.234 33.247C105.234 33.5254 105.169 33.775 105.041 33.9956C104.915 34.2162 104.74 34.3898 104.516 34.5164C104.291 34.6394 104.039 34.7008 103.759 34.7008ZM103.759 34.3591C103.965 34.3591 104.149 34.3139 104.311 34.2235C104.477 34.1294 104.606 33.9974 104.698 33.8274C104.79 33.6575 104.836 33.464 104.836 33.247C104.836 33.03 104.79 32.8365 104.698 32.6665C104.606 32.4965 104.477 32.3663 104.311 32.2759C104.149 32.1819 103.965 32.1349 103.759 32.1349C103.553 32.1349 103.367 32.1819 103.201 32.2759C103.039 32.3663 102.91 32.4965 102.814 32.6665C102.722 32.8365 102.676 33.03 102.676 33.247C102.676 33.464 102.722 33.6575 102.814 33.8274C102.91 33.9974 103.039 34.1294 103.201 34.2235C103.367 34.3139 103.553 34.3591 103.759 34.3591Z" fill="currentColor"/>
<path d="M107.787 34.6737L106.865 33.4802L105.936 34.6737H105.495L106.644 33.209L105.55 31.8202H105.992L106.865 32.9377L107.737 31.8202H108.168L107.074 33.209L108.234 34.6737H107.787Z" fill="currentColor"/>
<path d="M109.974 34.7008C109.694 34.7008 109.441 34.6394 109.217 34.5164C108.992 34.3898 108.815 34.2162 108.686 33.9956C108.558 33.775 108.493 33.5254 108.493 33.247C108.493 32.9685 108.558 32.7189 108.686 32.4983C108.815 32.2777 108.992 32.1059 109.217 31.983C109.441 31.86 109.694 31.7985 109.974 31.7985C110.253 31.7985 110.506 31.86 110.73 31.983C110.955 32.1059 111.13 32.2777 111.255 32.4983C111.384 32.7189 111.448 32.9685 111.448 33.247C111.448 33.5254 111.384 33.775 111.255 33.9956C111.13 34.2162 110.955 34.3898 110.73 34.5164C110.506 34.6394 110.253 34.7008 109.974 34.7008ZM109.974 34.3591C110.18 34.3591 110.364 34.3139 110.526 34.2235C110.692 34.1294 110.821 33.9974 110.913 33.8274C111.005 33.6575 111.051 33.464 111.051 33.247C111.051 33.03 111.005 32.8365 110.913 32.6665C110.821 32.4965 110.692 32.3663 110.526 32.2759C110.364 32.1819 110.18 32.1349 109.974 32.1349C109.767 32.1349 109.581 32.1819 109.416 32.2759C109.254 32.3663 109.125 32.4965 109.029 32.6665C108.937 32.8365 108.891 33.03 108.891 33.247C108.891 33.464 108.937 33.6575 109.029 33.8274C109.125 33.9974 109.254 34.1294 109.416 34.2235C109.581 34.3139 109.767 34.3591 109.974 34.3591Z" fill="currentColor"/>
<path d="M115.104 34.3374V35.3627H114.734V34.6737H112.132V35.3627H111.762V34.3374H111.928C112.123 34.3265 112.256 34.1855 112.326 33.9142C112.396 33.643 112.444 33.2632 112.469 32.775L112.508 31.8202H114.651V34.3374H115.104ZM112.828 32.7967C112.81 33.2018 112.775 33.5363 112.723 33.8003C112.672 34.0607 112.58 34.2397 112.447 34.3374H114.259V32.162H112.862L112.828 32.7967Z" fill="currentColor"/>
<path d="M117.067 34.7008C116.788 34.7008 116.535 34.6394 116.311 34.5164C116.086 34.3898 115.909 34.2162 115.78 33.9956C115.651 33.775 115.587 33.5254 115.587 33.247C115.587 32.9685 115.651 32.7189 115.78 32.4983C115.909 32.2777 116.086 32.1059 116.311 31.983C116.535 31.86 116.788 31.7985 117.067 31.7985C117.347 31.7985 117.6 31.86 117.824 31.983C118.049 32.1059 118.224 32.2777 118.349 32.4983C118.478 32.7189 118.542 32.9685 118.542 33.247C118.542 33.5254 118.478 33.775 118.349 33.9956C118.224 34.2162 118.049 34.3898 117.824 34.5164C117.6 34.6394 117.347 34.7008 117.067 34.7008ZM117.067 34.3591C117.274 34.3591 117.458 34.3139 117.62 34.2235C117.786 34.1294 117.914 33.9974 118.006 33.8274C118.099 33.6575 118.145 33.464 118.145 33.247C118.145 33.03 118.099 32.8365 118.006 32.6665C117.914 32.4965 117.786 32.3663 117.62 32.2759C117.458 32.1819 117.274 32.1349 117.067 32.1349C116.861 32.1349 116.675 32.1819 116.509 32.2759C116.347 32.3663 116.219 32.4965 116.123 32.6665C116.031 32.8365 115.985 33.03 115.985 33.247C115.985 33.464 116.031 33.6575 116.123 33.8274C116.219 33.9974 116.347 34.1294 116.509 34.2235C116.675 34.3139 116.861 34.3591 117.067 34.3591Z" fill="currentColor"/>
<path d="M121.231 33.1981C121.625 33.2886 121.822 33.5218 121.822 33.898C121.822 34.1475 121.728 34.3392 121.54 34.473C121.353 34.6068 121.073 34.6737 120.701 34.6737H119.381V31.8202H120.662C120.994 31.8202 121.253 31.8835 121.441 32.0101C121.629 32.1367 121.723 32.3175 121.723 32.5526C121.723 32.7081 121.679 32.8419 121.59 32.954C121.505 33.0625 121.386 33.1439 121.231 33.1981ZM119.762 33.0896H120.635C120.859 33.0896 121.03 33.0481 121.148 32.9649C121.27 32.8817 121.331 32.7605 121.331 32.6014C121.331 32.4423 121.27 32.3229 121.148 32.2434C121.03 32.1638 120.859 32.124 120.635 32.124H119.762V33.0896ZM120.684 34.3699C120.935 34.3699 121.122 34.3301 121.248 34.2506C121.373 34.171 121.436 34.0462 121.436 33.8763C121.436 33.7063 121.378 33.5815 121.264 33.5019C121.15 33.4188 120.97 33.3772 120.723 33.3772H119.762V34.3699H120.684Z" fill="currentColor"/>
<path d="M126.038 33.1981C126.432 33.2886 126.629 33.5218 126.629 33.898C126.629 34.1475 126.535 34.3392 126.347 34.473C126.159 34.6068 125.879 34.6737 125.507 34.6737H124.187V31.8202H125.469C125.8 31.8202 126.06 31.8835 126.248 32.0101C126.435 32.1367 126.529 32.3175 126.529 32.5526C126.529 32.7081 126.485 32.8419 126.397 32.954C126.312 33.0625 126.192 33.1439 126.038 33.1981ZM124.568 33.0896H125.441C125.666 33.0896 125.837 33.0481 125.955 32.9649C126.076 32.8817 126.137 32.7605 126.137 32.6014C126.137 32.4423 126.076 32.3229 125.955 32.2434C125.837 32.1638 125.666 32.124 125.441 32.124H124.568V33.0896ZM125.491 34.3699C125.741 34.3699 125.929 34.3301 126.054 34.2506C126.179 34.171 126.242 34.0462 126.242 33.8763C126.242 33.7063 126.185 33.5815 126.071 33.5019C125.957 33.4188 125.776 33.3772 125.529 33.3772H124.568V34.3699H125.491Z" fill="currentColor"/>
<path d="M131.049 32.162H129.386V34.6737H128.994V31.8202H131.049V32.162Z" fill="currentColor"/>
<path d="M132.679 34.7008C132.399 34.7008 132.147 34.6394 131.923 34.5164C131.698 34.3898 131.521 34.2162 131.392 33.9956C131.263 33.775 131.199 33.5254 131.199 33.247C131.199 32.9685 131.263 32.7189 131.392 32.4983C131.521 32.2777 131.698 32.1059 131.923 31.983C132.147 31.86 132.399 31.7985 132.679 31.7985C132.959 31.7985 133.211 31.86 133.436 31.983C133.661 32.1059 133.836 32.2777 133.961 32.4983C134.09 32.7189 134.154 32.9685 134.154 33.247C134.154 33.5254 134.09 33.775 133.961 33.9956C133.836 34.2162 133.661 34.3898 133.436 34.5164C133.211 34.6394 132.959 34.7008 132.679 34.7008ZM132.679 34.3591C132.886 34.3591 133.07 34.3139 133.232 34.2235C133.397 34.1294 133.526 33.9974 133.618 33.8274C133.71 33.6575 133.757 33.464 133.757 33.247C133.757 33.03 133.71 32.8365 133.618 32.6665C133.526 32.4965 133.397 32.3663 133.232 32.2759C133.07 32.1819 132.886 32.1349 132.679 32.1349C132.473 32.1349 132.287 32.1819 132.121 32.2759C131.959 32.3663 131.83 32.4965 131.735 32.6665C131.643 32.8365 131.597 33.03 131.597 33.247C131.597 33.464 131.643 33.6575 131.735 33.8274C131.83 33.9974 131.959 34.1294 132.121 34.2235C132.287 34.3139 132.473 34.3591 132.679 34.3591Z" fill="currentColor"/>
<path d="M136.49 31.7985C136.762 31.7985 137.009 31.86 137.23 31.983C137.451 32.1023 137.624 32.2723 137.749 32.4929C137.874 32.7135 137.937 32.9649 137.937 33.247C137.937 33.5327 137.874 33.7858 137.749 34.0065C137.624 34.2271 137.451 34.3989 137.23 34.5218C137.012 34.6412 136.766 34.7008 136.49 34.7008C136.254 34.7008 136.04 34.6538 135.849 34.5598C135.661 34.4622 135.506 34.3211 135.385 34.1367V35.7262H134.992V31.8202H135.368V32.3844C135.486 32.1963 135.641 32.0517 135.832 31.9504C136.027 31.8492 136.246 31.7985 136.49 31.7985ZM136.462 34.3591C136.664 34.3591 136.849 34.3139 137.014 34.2235C137.18 34.1294 137.309 33.9974 137.401 33.8274C137.497 33.6575 137.545 33.464 137.545 33.247C137.545 33.03 137.497 32.8383 137.401 32.6719C137.309 32.5019 137.18 32.3699 137.014 32.2759C136.849 32.1819 136.664 32.1349 136.462 32.1349C136.256 32.1349 136.07 32.1819 135.904 32.2759C135.742 32.3699 135.613 32.5019 135.517 32.6719C135.425 32.8383 135.379 33.03 135.379 33.247C135.379 33.464 135.425 33.6575 135.517 33.8274C135.613 33.9974 135.742 34.1294 135.904 34.2235C136.07 34.3139 136.256 34.3591 136.462 34.3591Z" fill="currentColor"/>
<path d="M140 32.8293C140.365 32.8329 140.643 32.9124 140.834 33.0679C141.026 33.2235 141.122 33.4477 141.122 33.7406C141.122 34.0444 141.019 34.2777 140.812 34.4404C140.606 34.6032 140.311 34.6828 139.928 34.6791L138.779 34.6737V31.8202H139.172V32.8184L140 32.8293ZM141.608 31.8202H142V34.6737H141.608V31.8202ZM139.906 34.3862C140.175 34.3898 140.378 34.3374 140.514 34.2289C140.654 34.1168 140.724 33.954 140.724 33.7406C140.724 33.5309 140.656 33.3754 140.52 33.2741C140.383 33.1728 140.179 33.1204 139.906 33.1168L139.172 33.1059V34.3754L139.906 34.3862Z" fill="currentColor"/>
</g>

</g></symbol><symbol id="mail" viewBox="0 0 22 22"><g fill="none">
<path d="M21 5.55556V16.4444C21 17.3036 20.3604 18 19.5714 18H2.42857C1.63959 18 1 17.3036 1 16.4444V5.55556M21 5.55556C21 4.69645 20.3604 4 19.5714 4H2.42857C1.63959 4 1 4.69645 1 5.55556M21 5.55556L12.8594 13.1534C11.7895 14.152 10.2106 14.152 9.14062 13.1534L1 5.55556" stroke="#2D383F" stroke-linecap="round" stroke-linejoin="round"/>
</g></symbol><symbol id="map" viewBox="0 0 25 25"><g fill="none">
<g clip-path="url(#clip0_809_744)">
<rect width="25" height="25" fill="white"/>
<path d="M24.1704 22.2803V6.70123C24.1823 6.44571 23.9848 6.22897 23.7293 6.2171C23.6748 6.21456 23.6204 6.22168 23.5684 6.23812V6.26127L21.4844 6.91426C21.7026 6.33016 21.8321 5.71665 21.8688 5.09423C21.8688 2.28077 19.588 0 16.7745 0C13.9611 0 11.6803 2.28077 11.6803 5.09423C11.7128 5.68754 11.833 6.27279 12.0369 6.8309L8.59135 5.59902C8.55135 5.5941 8.51094 5.5941 8.47094 5.59902H8.43389C8.37837 5.60001 8.32344 5.61101 8.2718 5.63144L1.12598 8.41011C0.961171 8.47281 0.846262 8.62361 0.82959 8.79913V16.246V24.3967C0.830342 24.6525 1.03828 24.8592 1.29409 24.8585C1.35065 24.8583 1.40669 24.8478 1.45942 24.8274L8.44315 22.1229L16.4087 24.9756C16.5048 25.0081 16.6089 25.0081 16.7051 24.9756L23.8463 22.7434C24.0469 22.6806 24.18 22.4904 24.1704 22.2803ZM16.7745 0.926224C19.0765 0.926224 20.9425 2.79228 20.9425 5.09423C20.9425 6.905 18.2241 11.9066 16.7745 14.3565C15.325 11.8881 12.6065 6.88184 12.6065 5.09423C12.6065 2.79228 14.4726 0.926224 16.7745 0.926224ZM23.2581 21.9608L17.0246 23.9105V20.3769C17.0246 20.1212 16.8173 19.9138 16.5615 19.9138C16.3057 19.9138 16.0984 20.1212 16.0984 20.3769V23.8781L8.90163 21.3032V18.3392C8.90163 18.0835 8.69427 17.8761 8.43852 17.8761C8.18277 17.8761 7.97541 18.0835 7.97541 18.3392V21.3032L1.75581 23.7252V16.5655L4.04359 15.6393C4.2884 15.5652 4.42675 15.3067 4.35266 15.0618C4.27856 14.817 4.02003 14.6787 3.77521 14.7528C3.74963 14.7605 3.72473 14.7705 3.70083 14.7825L1.75576 15.5652V9.11868L7.97535 6.71049V8.09983C7.97535 8.35558 8.18271 8.56294 8.43846 8.56294C8.69421 8.56294 8.90157 8.35558 8.90157 8.09983V6.69197L12.4536 7.96553C13.5928 10.5687 14.9032 13.0936 16.3762 15.5235C16.5088 15.7422 16.7936 15.8119 17.0123 15.6793C17.076 15.6407 17.1295 15.5872 17.1681 15.5235C18.6339 13.1079 19.9396 10.5985 21.0768 8.01184L23.2442 7.33106L23.258 14.9215L20.9101 15.4911C20.6543 15.5218 20.4718 15.754 20.5025 16.0098C20.5332 16.2655 20.7655 16.448 21.0212 16.4173C21.0581 16.4218 21.0954 16.4218 21.1324 16.4173L23.258 15.8986V21.9608H23.2581Z" fill="#2D383F"/>
<path d="M16.7556 2.40332C15.2696 2.40332 14.0649 3.60799 14.0649 5.094C14.0649 6.58001 15.2696 7.78468 16.7556 7.78468C18.2406 7.78213 19.4438 6.57897 19.4463 5.094C19.4463 3.60799 18.2416 2.40332 16.7556 2.40332ZM16.7556 6.85846C15.7895 6.84584 15.0121 6.06028 15.0097 5.094H14.9912C14.9912 4.1195 15.7811 3.32954 16.7556 3.32954C17.7301 3.32954 18.5201 4.1195 18.5201 5.094C18.5201 6.0685 17.7301 6.85846 16.7556 6.85846Z" fill="#2D383F"/>
<path d="M10.6981 13.9672V13.9811L8.45661 13.0132C8.34251 12.9656 8.21411 12.9656 8.10001 13.0132L6.20589 13.7774C5.96802 13.8733 5.85294 14.1439 5.94886 14.3817C6.04478 14.6196 6.31536 14.7347 6.55322 14.6387L8.26673 13.9487L10.3276 14.8194C10.3861 14.8443 10.4492 14.8569 10.5128 14.8564C10.7686 14.8585 10.9776 14.6529 10.9797 14.3971C10.9812 14.2101 10.8701 14.0405 10.6981 13.9672Z" fill="#2D383F"/>
<path d="M18.27 16.6161C18.201 16.393 17.9766 16.2562 17.7467 16.2969L17.7513 16.2599L16.6028 16.5377L14.6578 15.6949C14.4224 15.5926 14.1487 15.7004 14.0465 15.9357C13.9442 16.171 14.052 16.4447 14.2873 16.547L16.3713 17.4732C16.4298 17.4982 16.4929 17.5108 16.5565 17.5103H16.6677L17.9644 17.1954C18.2087 17.1198 18.3455 16.8604 18.27 16.6161Z" fill="#2D383F"/>
</g>

</g></symbol><symbol id="menu-closed" viewBox="0 0 22 22"><g fill="none">
<path d="M2 2L11 11M20 20L11 11M11 11L20 2L2 20" stroke="currentColor" stroke-width="2"/>
</g></symbol><symbol id="menu-opened" viewBox="0 0 22 22"><g fill="none">
<path d="M0 3H22V4.83609H0V3Z" fill="currentColor"/>
<path d="M0 17.1639H22V19H0V17.1639Z" fill="currentColor"/>
<path d="M0 10.082H14.08V11.918H0V10.082Z" fill="currentColor"/>
</g></symbol><symbol id="moon" viewBox="0 0 22 22"><g fill="none">
<path d="M20.5272 12.382C20.3228 12.3307 20.1183 12.382 19.9394 12.5103C19.2748 13.0745 18.5081 13.5362 17.6646 13.844C16.8723 14.1518 16.0033 14.3057 15.0831 14.3057C13.0128 14.3057 11.1215 13.4593 9.76681 12.0999C8.41217 10.7405 7.56872 8.84251 7.56872 6.76497C7.56872 5.89291 7.72207 5.0465 7.97767 4.27704C8.25882 3.45628 8.66777 2.71247 9.20451 2.07125C9.43454 1.78912 9.38343 1.37874 9.10227 1.1479C8.92336 1.01966 8.71888 0.96836 8.51441 1.01966C6.34188 1.60958 4.4505 2.91766 3.09586 4.66177C1.79234 6.38024 1 8.50908 1 10.8431C1 13.6388 2.12461 16.178 3.96487 18.0247C5.80513 19.8715 8.3355 21 11.1215 21C13.4729 21 15.6454 20.1792 17.3835 18.8199C19.147 17.4348 20.425 15.4599 20.9618 13.2028C21.0895 12.8181 20.8851 12.459 20.5272 12.382ZM16.6167 17.7426C15.1342 18.9225 13.2429 19.6406 11.1726 19.6406C8.74444 19.6406 6.54635 18.6403 4.96168 17.0501C3.37701 15.4599 2.3802 13.2541 2.3802 10.8175C2.3802 8.79122 3.04474 6.94451 4.1949 5.45688C4.98724 4.43094 5.98405 3.58453 7.13421 2.99461C7.00642 3.27674 6.87862 3.55888 6.77638 3.86666C6.44411 4.79002 6.29076 5.76467 6.29076 6.79062C6.29076 9.22724 7.28757 11.4587 8.87224 13.0489C10.4569 14.6391 12.6806 15.6394 15.1087 15.6394C16.1822 15.6394 17.2045 15.4599 18.1502 15.1008C18.4825 14.9726 18.8148 14.8443 19.1215 14.6904C18.5081 15.8703 17.6646 16.9219 16.6167 17.7426Z" fill="currentColor"/>
</g></symbol><symbol id="mountain" viewBox="0 0 25 25"><g fill="none">
<g clip-path="url(#clip0_809_776)">
<rect width="25" height="25" fill="white"/>
<path d="M23.4153 24.1879L19.3747 14.7901L15.5583 5.9074C15.4551 5.665 15.1749 5.55224 14.9325 5.65546C14.8192 5.70376 14.7289 5.79404 14.6806 5.9074L11.2744 13.8121L9.93871 16.9177L7.00963 10.1579C6.90634 9.91551 6.62614 9.80274 6.3838 9.90596C6.27044 9.95427 6.18016 10.0445 6.13186 10.1579L3.37928 16.517L0.0399368 24.1831C-0.0654315 24.4246 0.0448861 24.7058 0.286333 24.8112C0.347037 24.8377 0.412572 24.8513 0.478822 24.851H22.9765C23.2399 24.8508 23.4533 24.6371 23.4531 24.3736C23.4531 24.3098 23.4402 24.2467 23.4153 24.1879ZM15.1147 7.29561L18.2107 14.4943H17.1231L15.1576 12.3237C14.9804 12.1287 14.6787 12.1143 14.4837 12.2916C14.4531 12.3194 14.4263 12.351 14.4039 12.3857L13.6692 13.5211H12.4384L15.1147 7.29561ZM6.57074 11.5318L9.018 17.1896H7.68226C7.52007 17.1899 7.36914 17.2726 7.28154 17.4091L6.80449 18.1676L5.57371 16.4311C5.48474 16.3028 5.33864 16.2262 5.18253 16.226H4.54805L6.57074 11.5318ZM1.22779 23.8969L4.13302 17.1801H4.93446L6.42285 19.3029C6.51182 19.4312 6.65792 19.5078 6.81403 19.5081C6.97283 19.5046 7.11947 19.4223 7.20522 19.2886L7.93987 18.1532H9.42826L11.9137 23.8778L1.22779 23.8969ZM12.9584 23.8969L10.4587 18.1246L12.0282 14.4752H13.9364C14.0986 14.4749 14.2495 14.3923 14.3371 14.2558L14.8666 13.44L16.5554 15.3053C16.6455 15.4052 16.7738 15.4624 16.9084 15.4627H18.6162L22.2466 23.9112L12.9584 23.8969Z" fill="#2D383F"/>
<path d="M7.61096 2.08189C7.16093 0.922602 5.85626 0.347698 4.69703 0.797794C3.83387 1.13286 3.26385 1.96221 3.26028 2.8881C3.25557 2.97075 3.25557 3.05352 3.26028 3.13617C2.13241 3.65997 1.64278 4.99893 2.16658 6.12679C2.52932 6.90778 3.30572 7.41351 4.16667 7.42961L4.19052 7.44869H7.52987C9.01188 7.47112 10.2314 6.28786 10.2538 4.80584C10.2762 3.32383 9.09298 2.10431 7.61096 2.08189ZM7.55849 6.50891H4.21914C3.50512 6.58267 2.86653 6.0637 2.79277 5.34968C2.719 4.63565 3.23797 3.99706 3.952 3.9233C4.21026 3.87124 4.37747 3.61972 4.32541 3.3614C4.32141 3.34166 4.31622 3.32216 4.30978 3.30314C4.26321 3.16968 4.23906 3.02943 4.23823 2.8881C4.23417 2.17146 4.81176 1.58725 5.52841 1.58314C6.16234 1.5795 6.70606 2.03448 6.81429 2.65912C6.85812 2.90993 7.09122 3.08208 7.34382 3.0503C7.41531 3.04559 7.48699 3.04559 7.55849 3.0503C8.51354 3.0503 9.28779 3.82455 9.28779 4.7796C9.28779 5.73466 8.51354 6.50891 7.55849 6.50891Z" fill="#2D383F"/>
<path d="M23.6966 2.63997C23.7013 2.55733 23.7013 2.47456 23.6966 2.39191C23.6917 1.14836 22.6797 0.144172 21.4362 0.148943C20.517 0.152521 19.6936 0.714604 19.3539 1.56727C17.8794 1.59816 16.7046 2.81392 16.7269 4.29057C16.7493 5.77258 17.9688 6.95584 19.4508 6.93342H22.7902C24.0335 6.91016 25.0226 5.88343 24.9994 4.64006C24.9833 3.77911 24.4776 3.00271 23.6966 2.63997ZM24.0559 4.94758C23.9296 5.54008 23.4102 5.96632 22.8045 5.97455H19.4651C18.5101 5.97455 17.7358 5.2003 17.7358 4.24525C17.7358 3.29019 18.5101 2.51594 19.4651 2.51594C19.5366 2.51123 19.6083 2.51123 19.6798 2.51594C19.9212 2.54099 20.1429 2.38088 20.195 2.14384C20.3146 1.43727 20.9843 0.961417 21.6909 1.08098C22.3975 1.20054 22.8734 1.87026 22.7538 2.57688C22.7416 2.64862 22.7235 2.71922 22.6995 2.78792C22.6153 3.03754 22.7494 3.3082 22.9991 3.39246C23.0181 3.3989 23.0376 3.40415 23.0573 3.40808C23.7582 3.5574 24.2053 4.24668 24.0559 4.94758Z" fill="#2D383F"/>
</g>

</g></symbol><symbol id="ok" viewBox="0 0 30 30"><g fill="none">
<rect x="0.5" y="0.5" width="29" height="29" stroke="#2D383F" stroke-opacity="0.2"/>
<path d="M14.5 9.42035C15.4159 9.42035 16.1607 10.1874 16.1607 11.1305C16.1607 12.0708 15.4159 12.8378 14.5 12.8378C13.5841 12.8378 12.8393 12.0708 12.8393 11.1305C12.8393 10.1874 13.5841 9.42035 14.5 9.42035ZM14.5 15.2582C16.7124 15.2582 18.5111 13.406 18.5111 11.1305C18.5111 8.85219 16.7124 7 14.5 7C12.2876 7 10.4917 8.85219 10.4917 11.1305C10.4917 13.406 12.2876 15.2582 14.5 15.2582ZM16.1221 18.6273C16.9386 18.4342 17.7248 18.1018 18.4504 17.6331C18.9993 17.278 19.1649 16.5308 18.82 15.9655C18.4724 15.3974 17.7497 15.2269 17.1979 15.5848C15.5566 16.6473 13.4434 16.6473 11.7993 15.5848C11.2503 15.2269 10.5248 15.3974 10.18 15.9655C9.83515 16.5308 10.0007 17.278 10.5496 17.6331C11.2752 18.1018 12.0614 18.4342 12.8779 18.6273L10.6351 20.934C10.1772 21.4056 10.1772 22.1726 10.6351 22.6442C10.8669 22.88 11.1648 22.9993 11.4655 22.9993C11.7662 22.9993 12.0669 22.88 12.2986 22.6442L14.5 20.3772L16.7042 22.6442C17.1621 23.1186 17.9042 23.1186 18.3649 22.6442C18.8228 22.1726 18.8228 21.4056 18.3649 20.934L16.1221 18.6273Z" fill="#2D383F"/>
</g></symbol><symbol id="path" viewBox="0 0 22 22"><g fill="none">
<g clip-path="url(#clip0_131_2519)">
<path d="M18.1429 8.76743H12.7857C11.1091 8.76743 9.75 10.1366 9.75 11.8256C9.75 13.5145 11.1091 14.8837 12.7857 14.8837H15.1071C16.7837 14.8837 18.1429 16.2529 18.1429 17.9419C18.1429 19.6308 16.7837 21 15.1071 21H3.85714M6.71428 15.9302C6.71428 14.3406 5.4351 13.0519 3.85714 13.0519C2.27919 13.0519 1 14.3406 1 15.9302V16.0384C1 16.6695 1.1985 17.2845 1.56701 17.7949L3.8515 20.9593C3.85429 20.9632 3.86 20.9632 3.86279 20.9593L6.14727 17.7949C6.51578 17.2845 6.71428 16.6695 6.71428 16.0384V15.9302ZM4.40947 14.7454L4.42662 14.7535C4.77242 14.9183 5.02453 15.2332 5.11112 15.6086C5.19868 15.9881 5.10458 16.3904 4.86077 16.6929C4.61964 16.9921 4.25485 17.1691 3.87232 17.1691H3.84197C3.45944 17.1691 3.09464 16.9921 2.85352 16.6929C2.60971 16.3904 2.51561 15.9881 2.60316 15.6086C2.68975 15.2332 2.94186 14.9183 3.28767 14.7535L3.30482 14.7454C3.65446 14.5788 4.05982 14.5788 4.40947 14.7454ZM21 3.89849C21 2.30887 19.7208 1 18.1429 1C16.5649 1 15.2857 2.30887 15.2857 3.89849C15.2857 4.52339 15.4857 5.1384 15.8561 5.63972L18.1372 8.72766C18.14 8.73147 18.1457 8.73147 18.1485 8.72766L20.4297 5.63972C20.8 5.1384 21 4.52339 21 3.89849ZM18.6875 2.65136L18.7262 2.66941C19.0631 2.82627 19.3099 3.13018 19.3957 3.4939C19.4838 3.86694 19.3925 4.25998 19.1492 4.55491L19.137 4.56971C18.8999 4.85725 18.548 5.02359 18.1769 5.02359H18.1088C17.7377 5.02359 17.3858 4.85725 17.1487 4.56971L17.1365 4.55491C16.8932 4.25998 16.8019 3.86694 16.89 3.4939C16.9758 3.13018 17.2226 2.82627 17.5595 2.66941L17.5983 2.65136C17.9438 2.49048 18.342 2.49048 18.6875 2.65136Z" stroke="#0266C1" stroke-linecap="round"/>
</g>

</g></symbol><symbol id="phone" viewBox="0 0 22 22"><g fill="none">
<g clip-path="url(#clip0_131_2514)">
<path d="M19.3236 20.0443C19.0034 20.6753 18.3438 21.0672 17.6426 20.9904C17.3412 20.9575 17.0402 20.9171 16.7396 20.8693C12.8229 20.2465 9.20304 18.3949 6.39895 15.5797C3.59486 12.7646 1.75046 9.1305 1.1301 5.19831C1.08254 4.89683 1.04236 4.59477 1.00952 4.29242C0.933062 3.58844 1.32346 2.92622 1.95195 2.60473L4.70244 1.19777C5.76693 0.653244 7.05498 1.28842 7.42933 2.42743C7.65638 3.11826 7.92452 3.79805 8.23342 4.4631C8.38821 4.79636 8.5524 5.12412 8.72567 5.44606C9.13588 6.20824 8.85917 7.18583 8.0736 7.54431C6.93267 8.06496 6.66094 9.56938 7.54713 10.4591L11.4995 14.427C12.3857 15.3167 13.8842 15.0439 14.4028 13.8985C14.7796 13.0663 15.8009 12.765 16.6118 13.1807C16.8084 13.2814 17.0071 13.3788 17.2078 13.4728C17.9681 13.8287 18.7478 14.1308 19.5413 14.3784C20.6964 14.7389 21.3521 16.0475 20.8029 17.1296L19.3236 20.0443Z" stroke="#2D383F" stroke-linecap="round" stroke-linejoin="round"/>
</g>

</g></symbol><symbol id="pin-filled" viewBox="0 0 22 22"><g fill="none">
<path fill-rule="evenodd" clip-rule="evenodd" d="M11 1C15.1421 1 18.5 4.19996 18.5 8.14732V8.57782C18.5 10.1572 17.9822 11.6971 17.0189 12.9823L11.0148 20.9927C11.0076 21.0024 10.9924 21.0024 10.9852 20.9927L4.98114 12.9823C4.01784 11.6971 3.5 10.1572 3.5 8.57782V8.14732C3.5 4.19996 6.85786 1 11 1ZM9.66733 5.76428C8.82517 6.14804 8.21352 6.87379 8.00552 7.73609C7.79753 8.59839 8.01582 9.50338 8.59862 10.1949C9.18141 10.8864 10.0653 11.2892 11 11.2892C11.9347 11.2892 12.8186 10.8864 13.4014 10.1949C13.9842 9.50338 14.2025 8.59839 13.9945 7.73609C13.7865 6.87379 13.1748 6.14804 12.3327 5.76428C11.4905 5.38052 10.5095 5.38052 9.66733 5.76428Z" fill="currentColor"/>
</g></symbol><symbol id="pin-stroke" viewBox="0 0 22 22"><g fill="none">
<path d="M18.5 8.14732C18.5 4.19996 15.1421 1 11 1C6.85786 1 3.5 4.19996 3.5 8.14732V8.57782C3.5 10.1572 4.01784 11.6971 4.98114 12.9823L10.9852 20.9927C10.9924 21.0024 11.0076 21.0024 11.0148 20.9927L17.0189 12.9823C17.9822 11.6971 18.5 10.1572 18.5 8.57782V8.14732Z" stroke="#2D383F" stroke-linecap="round" stroke-linejoin="round"/>
<path d="M9.53407 5.28903C10.4604 4.86389 11.5396 4.86389 12.4659 5.28903C13.3923 5.71417 14.0651 6.51818 14.2939 7.47347C14.5227 8.42875 14.2826 9.43134 13.6415 10.1974C13.0004 10.9635 12.0282 11.4097 11 11.4097C9.9718 11.4097 8.99955 10.9635 8.35848 10.1974C7.7174 9.43134 7.47728 8.42875 7.70608 7.47347C7.93487 6.51818 8.60769 5.71417 9.53407 5.28903Z" stroke="#2D383F" stroke-linecap="round" stroke-linejoin="round"/>
</g></symbol><symbol id="play" viewBox="0 0 12 22"><g fill="none">
<path d="M12 11L0 0V22L12 11Z" fill="currentColor"/>
</g></symbol><symbol id="reddit" viewBox="0 0 30 30"><g fill="none">
<rect x="0.5" y="0.5" width="29" height="29" stroke="#2D383F" stroke-opacity="0.2"/>
<path d="M16.3617 7C15.9128 7 15.4915 7.24401 15.2213 7.59589C14.9511 7.94777 14.8021 8.37671 14.6936 8.82877C14.5213 9.55565 14.4681 10.3622 14.4553 11.089C13.1936 11.1789 12.0511 11.5796 11.1021 12.1986C10.717 11.8519 10.2532 11.6592 9.80849 11.6644C9.3021 11.6695 8.82125 11.9033 8.4638 12.3836C7.78082 13.3005 7.85955 14.8005 8.65104 15.6918C8.6021 15.9666 8.56593 16.2491 8.56593 16.5342C8.56593 19.5548 11.4468 22 15 22C18.5532 22 21.4341 19.5522 21.4341 16.5342C21.4341 16.2491 21.3979 15.9666 21.349 15.6918C22.1405 14.8005 22.2192 13.3005 21.5362 12.3836C21.1788 11.9033 20.6979 11.6695 20.1915 11.6644C19.7468 11.6592 19.283 11.8519 18.8979 12.1986C17.9532 11.5822 16.817 11.1815 15.5617 11.089C15.5787 10.4187 15.6234 9.7226 15.7489 9.19863C15.8277 8.86986 15.9213 8.63099 16.0213 8.5C16.1213 8.36901 16.1936 8.31507 16.3617 8.31507C16.7255 8.31507 16.7723 8.44092 16.9915 8.74658C17.1021 8.90068 17.2298 9.09332 17.4341 9.28082C17.6383 9.46832 17.9404 9.63014 18.2681 9.63014V8.31507C18.1766 8.31507 18.1596 8.3125 18.0979 8.25342C18.0362 8.19435 17.9511 8.05822 17.8255 7.88356C17.5745 7.53168 17.0872 7 16.3617 7ZM19.9021 7.12329C19.0553 7.12329 18.3702 7.95034 18.3702 8.9726C18.3702 9.99486 19.0553 10.8219 19.9021 10.8219C20.749 10.8219 21.4341 9.99486 21.4341 8.9726C21.4341 7.95034 20.749 7.12329 19.9021 7.12329ZM19.9021 7.78082C20.4468 7.78082 20.8894 8.31507 20.8894 8.9726C20.8894 9.63014 20.4468 10.1644 19.9021 10.1644C19.3575 10.1644 18.9149 9.63014 18.9149 8.9726C18.9149 8.31507 19.3575 7.78082 19.9021 7.78082ZM15 12.1164C18.0149 12.1164 20.566 14.143 20.566 16.5342C20.566 18.9281 18.0149 20.9521 15 20.9521C11.9851 20.9521 9.43402 18.9281 9.43402 16.5342C9.43402 14.143 11.9851 12.1164 15 12.1164ZM9.82551 12.7123C9.97658 12.7149 10.134 12.756 10.2851 12.8356C9.73828 13.3365 9.30423 13.9118 9.00849 14.5616C8.80423 14.0531 8.85955 13.4187 9.11061 13.0822C9.29359 12.8356 9.54679 12.7098 9.82551 12.7123ZM20.1745 12.7123C20.4532 12.7098 20.7064 12.8356 20.8894 13.0822C21.1405 13.4187 21.1958 14.0531 20.9915 14.5616C20.6958 13.9118 20.2617 13.3365 19.7149 12.8356C19.866 12.756 20.0234 12.7149 20.1745 12.7123ZM12.8213 14.3562C12.2766 14.3562 11.834 14.8904 11.834 15.5479C11.834 16.2055 12.2766 16.7397 12.8213 16.7397C13.366 16.7397 13.8085 16.2055 13.8085 15.5479C13.8085 14.8904 13.366 14.3562 12.8213 14.3562ZM17.1787 14.3562C16.6341 14.3562 16.1915 14.8904 16.1915 15.5479C16.1915 16.2055 16.6341 16.7397 17.1787 16.7397C17.7234 16.7397 18.166 16.2055 18.166 15.5479C18.166 14.8904 17.7234 14.3562 17.1787 14.3562ZM12.2936 18.4041C12.6404 19.2697 13.7128 20.1096 15 20.1096C16.2872 20.1096 17.3766 19.2697 17.7234 18.4041C17.0936 18.8947 16.1 19.226 15 19.226C13.9 19.226 12.9234 18.8947 12.2936 18.4041Z" fill="#2D383F"/>
</g></symbol><symbol id="shield" viewBox="0 0 22 22"><g fill="none">
<path d="M8.75001 10.912L11 13.1562L14.9375 9.22882M11 1C8.67869 2.18698 6.09257 2.81813 3.44902 2.81813C3.09212 2.81813 2.73627 2.80662 2.38197 2.7838C1.92463 4.87029 1.87403 7.04136 2.25148 9.17646C2.92717 12.9986 4.93142 16.4612 7.91222 18.9559C8.86795 19.7558 9.90448 20.4398 11 21C12.0955 20.4398 13.132 19.7558 14.0878 18.9559C17.0686 16.4612 19.0728 12.9986 19.7485 9.17647C20.126 7.04136 20.0754 4.87029 19.618 2.7838C19.2637 2.80662 18.9078 2.81813 18.5509 2.81813C15.9074 2.81813 13.3212 2.18698 11 1Z" stroke="#0266C1"/>
</g></symbol><symbol id="star-filled" viewBox="0 0 16 16"><g fill="none">
<path d="M7.63441 11.6911L12.3525 14.3L11.1042 9.37971L15.2688 6.0708L9.77893 5.63889L7.63441 1L5.48992 5.63889L0 6.0708L4.16458 9.37971L2.91634 14.3L7.63441 11.6911Z" fill="white"/>
</g></symbol><symbol id="star" viewBox="0 0 16 16"><g fill="none">
<path fill-rule="evenodd" clip-rule="evenodd" d="M7.63441 10.5484L10.8153 12.3073L9.97596 8.99895L12.6574 6.86844L9.11688 6.58989L7.63441 3.38311L6.15197 6.58989L2.61141 6.86844L5.29286 8.99895L4.45356 12.3073L7.63441 10.5484ZM2.91634 14.3L4.16458 9.37971L0 6.0708L5.48992 5.63889L7.63441 1L9.77893 5.63889L15.2688 6.0708L11.1042 9.37971L12.3525 14.3L7.63441 11.6911L2.91634 14.3Z" fill="white"/>
</g></symbol><symbol id="sun" viewBox="0 0 22 22"><g fill="none">
<path d="M14.545 7.45505C13.6455 6.55558 12.3757 5.97357 11 5.97357C9.62433 5.97357 8.35449 6.52912 7.45502 7.45505C6.55555 8.35451 5.97354 9.62435 5.97354 11C5.97354 12.3757 6.55555 13.6455 7.45502 14.545C8.35449 15.4444 9.62433 16.0265 11 16.0265C12.3757 16.0265 13.6455 15.4709 14.545 14.545C15.4444 13.6455 16.0265 12.3757 16.0265 11C16.0265 9.62435 15.4709 8.35451 14.545 7.45505ZM13.5926 13.5926C12.9312 14.254 12.0053 14.6508 11 14.6508C9.9947 14.6508 9.06878 14.254 8.4074 13.5926C7.74603 12.9312 7.3492 12.0053 7.3492 11C7.3492 9.99472 7.74603 9.0688 8.4074 8.40742C9.06878 7.74605 9.9947 7.34923 11 7.34923C12.0053 7.34923 12.9312 7.74605 13.5926 8.40742C14.254 9.0688 14.6508 9.99472 14.6508 11C14.6508 12.0053 14.254 12.9312 13.5926 13.5926Z" fill="currentColor"/>
<path d="M20.3122 10.3122H18.2751C17.9048 10.3122 17.5873 10.6297 17.5873 11C17.5873 11.3704 17.9048 11.6879 18.2751 11.6879H20.3122C20.6825 11.6879 21 11.3704 21 11C21 10.6297 20.6825 10.3122 20.3122 10.3122Z" fill="currentColor"/>
<path d="M11 17.5873C10.6296 17.5873 10.3122 17.9048 10.3122 18.2751V20.3122C10.3122 20.6825 10.6296 21 11 21C11.3704 21 11.6878 20.6825 11.6878 20.3122V18.2751C11.6878 17.9048 11.3704 17.5873 11 17.5873Z" fill="currentColor"/>
<path d="M18.0635 17.1111L16.6085 15.656C16.3704 15.3915 15.9207 15.3915 15.6561 15.656C15.3916 15.9206 15.3916 16.3439 15.6561 16.6084L17.1111 18.0634C17.3757 18.328 17.799 18.328 18.0635 18.0634C18.3281 17.7989 18.3281 17.3756 18.0635 17.1111Z" fill="currentColor"/>
<path d="M11 1C10.6296 1 10.3122 1.31746 10.3122 1.68783V3.72486C10.3122 4.09523 10.6296 4.41269 11 4.41269C11.3704 4.41269 11.6878 4.09523 11.6878 3.72486V1.68783C11.6878 1.31746 11.3704 1 11 1Z" fill="currentColor"/>
<path d="M18.0899 3.93653C17.8254 3.67198 17.4021 3.67198 17.1376 3.93653L15.6825 5.39155C15.418 5.6561 15.418 6.07938 15.6825 6.34393C15.9206 6.60848 16.3704 6.60848 16.6349 6.34393L18.0899 4.88891C18.3545 4.62436 18.3545 4.20108 18.0899 3.93653Z" fill="currentColor"/>
<path d="M3.72487 10.3122H1.68783C1.31746 10.3122 1 10.6297 1 11C1 11.3704 1.29101 11.6879 1.68783 11.6879H3.72487C4.09524 11.6879 4.4127 11.3704 4.4127 11C4.4127 10.6297 4.09524 10.3122 3.72487 10.3122Z" fill="currentColor"/>
<path d="M6.31746 15.656C6.07937 15.3915 5.62963 15.3915 5.36508 15.656L3.91005 17.1111C3.6455 17.3756 3.6455 17.7989 3.91005 18.0634C4.1746 18.328 4.59788 18.328 4.86243 18.0634L6.31746 16.6084C6.58201 16.3439 6.58201 15.9206 6.31746 15.656Z" fill="currentColor"/>
<path d="M6.31746 5.39155L4.86243 3.93653C4.59788 3.67198 4.1746 3.67198 3.91005 3.93653C3.6455 4.20108 3.6455 4.62436 3.91005 4.88891L5.36508 6.34393C5.62963 6.60848 6.05291 6.60848 6.31746 6.34393C6.58201 6.07938 6.58201 5.6561 6.31746 5.39155Z" fill="currentColor"/>
</g></symbol><symbol id="tree" viewBox="0 0 23 23"><g fill="none">
<g clip-path="url(#clip0_809_788)">
<rect width="23" height="23" fill="white"/>
<path d="M22.8826 16.6365L18.2637 11.472H20.4953C20.7559 11.4714 20.9666 11.2644 20.966 11.0098C20.9657 10.9084 20.9313 10.8099 20.868 10.7296L17.1596 5.96623H19.0469C19.3074 5.96589 19.5184 5.75919 19.5181 5.50454C19.518 5.39271 19.4762 5.28475 19.4007 5.20077L14.8619 0.156126C14.6896 -0.0348923 14.3914 -0.0531642 14.196 0.115317C14.1812 0.128056 14.1673 0.141716 14.1542 0.156126L9.61074 5.19616C9.43618 5.38522 9.45145 5.67682 9.64483 5.84744C9.73247 5.92473 9.84653 5.9671 9.9646 5.96623H11.8754L10.7336 7.42337L7.67634 4.02492C7.50401 3.8339 7.20583 3.81563 7.01039 3.98411C6.99558 3.99685 6.98167 4.01051 6.96863 4.02492L3.08567 8.33639C2.9137 8.52769 2.93298 8.81906 3.12872 8.98714C3.21465 9.06092 3.32511 9.10167 3.43953 9.10184H4.93515L1.83067 13.0721C1.67692 13.2777 1.72274 13.5662 1.93311 13.7165C2.01166 13.7726 2.10609 13.8036 2.20339 13.8053H3.94908L0.113296 18.1167C-0.0560825 18.3102 -0.032905 18.6013 0.165135 18.7669C0.249353 18.8373 0.356335 18.8765 0.46715 18.8776H5.68532V22.1054C5.68532 22.5994 6.09514 23 6.60062 23H8.03963C8.54511 23.0025 8.95706 22.6041 8.95965 22.11C8.95965 22.1085 8.95965 22.107 8.95965 22.1054V18.8776H12.8756V22.1054C12.8756 22.5994 13.2855 23 13.7909 23H15.2299C15.7354 23 16.1453 22.5994 16.1453 22.1054V17.402H22.5288C22.7893 17.4017 23.0003 17.195 23 16.9403C22.9998 16.8285 22.9581 16.7205 22.8826 16.6365ZM8.01604 22.0777L6.62893 22.1054L6.60062 18.8776H8.01604V22.0777ZM12.8756 17.9553H1.50512L5.36449 13.6531C5.53918 13.4642 5.52402 13.1726 5.3307 13.0018C5.24058 12.9223 5.12257 12.8797 5.0012 12.883H3.16116L6.26564 8.91279C6.42458 8.71099 6.38607 8.42146 6.1796 8.26612C6.09738 8.20428 5.99665 8.17061 5.89292 8.17038H4.4775L7.30833 5.02094L10.1392 8.16116L8.14815 10.7342C7.98921 10.936 8.02772 11.2255 8.23419 11.3809C8.31641 11.4427 8.41714 11.4764 8.52087 11.4766H10.7572L6.13825 16.6411C5.96628 16.8325 5.98557 17.1238 6.18131 17.2919C6.26723 17.3657 6.3777 17.4064 6.49211 17.4066H12.8756V17.9553ZM15.2016 22.0685L13.8193 22.1054L13.7909 17.402H15.2064L15.2016 22.0685ZM15.2299 16.4798H7.53008L12.1491 11.3152C12.321 11.1239 12.3017 10.8325 12.106 10.6645C12.0201 10.5907 11.9096 10.5499 11.7952 10.5498H9.47864L13.2059 5.78178C13.3622 5.57808 13.32 5.28902 13.1116 5.13622C13.0312 5.07731 12.9337 5.04497 12.8332 5.04399H11.0262L14.527 1.16137L18.0089 5.04399H16.1877C15.9272 5.04463 15.7164 5.25155 15.717 5.50621C15.7173 5.6076 15.7517 5.70605 15.815 5.7864L19.5187 10.5498H17.221C16.9604 10.5501 16.7495 10.7568 16.7498 11.0115C16.7499 11.1233 16.7916 11.2312 16.8671 11.3152L21.4861 16.4798H15.2299Z" fill="#2D383F"/>
</g>

</g></symbol><symbol id="vk" viewBox="0 0 30 30"><g fill="none">
<path d="M22.8574 19.0274C22.8144 18.9564 22.5484 18.3866 21.2683 17.2153C19.9282 15.9888 20.1082 16.188 21.7223 14.0673C22.7054 12.7757 23.0984 11.987 22.9754 11.6498C22.8584 11.3284 22.1353 11.4132 22.1353 11.4132L19.7312 11.427C19.7312 11.427 19.5531 11.4033 19.4201 11.4812C19.2911 11.5581 19.2081 11.7356 19.2081 11.7356C19.2081 11.7356 18.8271 12.7353 18.3191 13.5852C17.248 15.3785 16.8189 15.4732 16.6439 15.3618C16.2369 15.1025 16.3389 14.3187 16.3389 13.7626C16.3389 12.0245 16.6059 11.2998 15.8179 11.1125C15.5559 11.0504 15.3638 11.009 14.6948 11.0021C13.8367 10.9932 13.1097 11.005 12.6986 11.2032C12.4246 11.3353 12.2136 11.6301 12.3426 11.6468C12.5016 11.6676 12.8617 11.7425 13.0527 11.9988C13.2997 12.3291 13.2907 13.0725 13.2907 13.0725C13.2907 13.0725 13.4327 15.1183 12.9597 15.3726C12.6346 15.5471 12.1896 15.1912 11.2345 13.5635C10.7455 12.7304 10.3755 11.8085 10.3755 11.8085C10.3755 11.8085 10.3045 11.637 10.1775 11.5453C10.0234 11.4339 9.80743 11.3984 9.80743 11.3984L7.52126 11.4122C7.52126 11.4122 7.17824 11.4221 7.05223 11.569C6.94022 11.7001 7.04323 11.9702 7.04323 11.9702C7.04323 11.9702 8.83336 16.0983 10.8595 18.1795C12.7186 20.0873 14.8288 19.9621 14.8288 19.9621H15.7849C15.7849 19.9621 16.0739 19.9305 16.2209 19.7738C16.3569 19.6298 16.3519 19.3597 16.3519 19.3597C16.3519 19.3597 16.3329 18.0948 16.929 17.9084C17.516 17.725 18.2701 19.131 19.0691 19.6722C19.6732 20.0814 20.1322 19.9917 20.1322 19.9917L22.2693 19.9621C22.2693 19.9621 23.3874 19.8941 22.8574 19.0274Z" fill="currentColor"/>
</g></symbol></svg>